<?xml version="1.0" encoding="us-ascii" standalone="no"?><svg xmlns="http://www.w3.org/2000/svg" xmlns:xlink="http://www.w3.org/1999/xlink" contentStyleType="text/css" height="759px" preserveAspectRatio="none" style="width:995px;height:759px;background:#FFFFFF;" version="1.1" viewBox="0 0 995 759" width="995px" zoomAndPan="magnify"><defs/><g><rect fill="none" height="132.3359" style="stroke:#000000;stroke-width:1.5;" width="369" x="609" y="528.8906"/><line style="stroke:#181818;stroke-width:0.5;stroke-dasharray:5.0,5.0;" x1="44" x2="44" y1="81.2969" y2="678.2266"/><line style="stroke:#181818;stroke-width:0.5;stroke-dasharray:5.0,5.0;" x1="186" x2="186" y1="81.2969" y2="678.2266"/><line style="stroke:#181818;stroke-width:0.5;stroke-dasharray:5.0,5.0;" x1="306" x2="306" y1="81.2969" y2="678.2266"/><line style="stroke:#181818;stroke-width:0.5;stroke-dasharray:5.0,5.0;" x1="473" x2="473" y1="81.2969" y2="678.2266"/><line style="stroke:#181818;stroke-width:0.5;stroke-dasharray:5.0,5.0;" x1="666" x2="666" y1="81.2969" y2="678.2266"/><line style="stroke:#181818;stroke-width:0.5;stroke-dasharray:5.0,5.0;" x1="837" x2="837" y1="81.2969" y2="678.2266"/><text fill="#000000" font-family="sans-serif" font-size="14" lengthAdjust="spacing" textLength="73" x="5" y="77.9951">Utilisateur</text><ellipse cx="44.5" cy="13.5" fill="#E2E2F0" rx="8" ry="8" style="stroke:#181818;stroke-width:0.5;"/><path d="M44.5,21.5 L44.5,48.5 M31.5,29.5 L57.5,29.5 M44.5,48.5 L31.5,63.5 M44.5,48.5 L57.5,63.5 " fill="none" style="stroke:#181818;stroke-width:0.5;"/><text fill="#000000" font-family="sans-serif" font-size="14" lengthAdjust="spacing" textLength="73" x="5" y="690.2217">Utilisateur</text><ellipse cx="44.5" cy="702.0234" fill="#E2E2F0" rx="8" ry="8" style="stroke:#181818;stroke-width:0.5;"/><path d="M44.5,710.0234 L44.5,737.0234 M31.5,718.0234 L57.5,718.0234 M44.5,737.0234 L31.5,752.0234 M44.5,737.0234 L57.5,752.0234 " fill="none" style="stroke:#181818;stroke-width:0.5;"/><rect fill="#E2E2F0" height="30.2969" rx="2.5" ry="2.5" style="stroke:#181818;stroke-width:0.5;" width="123" x="125" y="50"/><text fill="#000000" font-family="sans-serif" font-size="14" lengthAdjust="spacing" textLength="109" x="132" y="69.9951">Client Readline</text><rect fill="#E2E2F0" height="30.2969" rx="2.5" ry="2.5" style="stroke:#181818;stroke-width:0.5;" width="123" x="125" y="677.2266"/><text fill="#000000" font-family="sans-serif" font-size="14" lengthAdjust="spacing" textLength="109" x="132" y="697.2217">Client Readline</text><rect fill="#E2E2F0" height="30.2969" rx="2.5" ry="2.5" style="stroke:#181818;stroke-width:0.5;" width="96" x="258" y="50"/><text fill="#000000" font-family="sans-serif" font-size="14" lengthAdjust="spacing" textLength="82" x="265" y="69.9951">Client LoRa</text><rect fill="#E2E2F0" height="30.2969" rx="2.5" ry="2.5" style="stroke:#181818;stroke-width:0.5;" width="96" x="258" y="677.2266"/><text fill="#000000" font-family="sans-serif" font-size="14" lengthAdjust="spacing" textLength="82" x="265" y="697.2217">Client LoRa</text><rect fill="#E2E2F0" height="30.2969" rx="2.5" ry="2.5" style="stroke:#181818;stroke-width:0.5;" width="90" x="428" y="50"/><text fill="#000000" font-family="sans-serif" font-size="14" lengthAdjust="spacing" textLength="76" x="435" y="69.9951">UDP Client</text><rect fill="#E2E2F0" height="30.2969" rx="2.5" ry="2.5" style="stroke:#181818;stroke-width:0.5;" width="90" x="428" y="677.2266"/><text fill="#000000" font-family="sans-serif" font-size="14" lengthAdjust="spacing" textLength="76" x="435" y="697.2217">UDP Client</text><rect fill="#E2E2F0" height="30.2969" rx="2.5" ry="2.5" style="stroke:#181818;stroke-width:0.5;" width="94" x="619" y="50"/><text fill="#000000" font-family="sans-serif" font-size="14" lengthAdjust="spacing" textLength="80" x="626" y="69.9951">UDP Server</text><rect fill="#E2E2F0" height="30.2969" rx="2.5" ry="2.5" style="stroke:#181818;stroke-width:0.5;" width="94" x="619" y="677.2266"/><text fill="#000000" font-family="sans-serif" font-size="14" lengthAdjust="spacing" textLength="80" x="626" y="697.2217">UDP Server</text><rect fill="#E2E2F0" height="30.2969" rx="2.5" ry="2.5" style="stroke:#181818;stroke-width:0.5;" width="100" x="787" y="50"/><text fill="#000000" font-family="sans-serif" font-size="14" lengthAdjust="spacing" textLength="86" x="794" y="69.9951">Server LoRa</text><rect fill="#E2E2F0" height="30.2969" rx="2.5" ry="2.5" style="stroke:#181818;stroke-width:0.5;" width="100" x="787" y="677.2266"/><text fill="#000000" font-family="sans-serif" font-size="14" lengthAdjust="spacing" textLength="86" x="794" y="697.2217">Server LoRa</text><rect fill="#EEEEEE" height="3" style="stroke:#EEEEEE;stroke-width:1.0;" width="988" x="0" y="111.8633"/><line style="stroke:#000000;stroke-width:1.0;" x1="0" x2="988" y1="111.8633" y2="111.8633"/><line style="stroke:#000000;stroke-width:1.0;" x1="0" x2="988" y1="114.8633" y2="114.8633"/><rect fill="#EEEEEE" height="23.1328" style="stroke:#000000;stroke-width:2.0;" width="155" x="416.5" y="101.2969"/><text fill="#000000" font-family="sans-serif" font-size="13" font-weight="bold" lengthAdjust="spacing" textLength="136" x="422.5" y="117.3638">Entr&#233;e Utilisateur</text><polygon fill="#181818" points="55.5,151.5625,45.5,155.5625,55.5,159.5625,51.5,155.5625" style="stroke:#181818;stroke-width:1.0;"/><line style="stroke:#181818;stroke-width:1.0;" x1="49.5" x2="185.5" y1="155.5625" y2="155.5625"/><text fill="#000000" font-family="sans-serif" font-size="13" lengthAdjust="spacing" textLength="118" x="61.5" y="150.4966">Demande payload</text><polygon fill="#181818" points="174.5,180.6953,184.5,184.6953,174.5,188.6953,178.5,184.6953" style="stroke:#181818;stroke-width:1.0;"/><line style="stroke:#181818;stroke-width:1.0;stroke-dasharray:2.0,2.0;" x1="44.5" x2="180.5" y1="184.6953" y2="184.6953"/><text fill="#000000" font-family="sans-serif" font-size="13" lengthAdjust="spacing" textLength="83" x="51.5" y="179.6294">payload saisi</text><polygon fill="#181818" points="294,209.8281,304,213.8281,294,217.8281,298,213.8281" style="stroke:#181818;stroke-width:1.0;"/><line style="stroke:#181818;stroke-width:1.0;stroke-dasharray:2.0,2.0;" x1="186.5" x2="300" y1="213.8281" y2="213.8281"/><text fill="#000000" font-family="sans-serif" font-size="13" lengthAdjust="spacing" textLength="51" x="193.5" y="208.7622">Payload</text><rect fill="#EEEEEE" height="3" style="stroke:#EEEEEE;stroke-width:1.0;" width="988" x="0" y="242.3945"/><line style="stroke:#000000;stroke-width:1.0;" x1="0" x2="988" y1="242.3945" y2="242.3945"/><line style="stroke:#000000;stroke-width:1.0;" x1="0" x2="988" y1="245.3945" y2="245.3945"/><rect fill="#EEEEEE" height="23.1328" style="stroke:#000000;stroke-width:2.0;" width="268" x="360" y="231.8281"/><text fill="#000000" font-family="sans-serif" font-size="13" font-weight="bold" lengthAdjust="spacing" textLength="249" x="366" y="247.895">Construction et Envoi du Paquet</text><polygon fill="#181818" points="461,282.0938,471,286.0938,461,290.0938,465,286.0938" style="stroke:#181818;stroke-width:1.0;"/><line style="stroke:#181818;stroke-width:1.0;" x1="306" x2="467" y1="286.0938" y2="286.0938"/><text fill="#000000" font-family="sans-serif" font-size="13" lengthAdjust="spacing" textLength="143" x="313" y="281.0278">Construit paquet LoRa</text><line style="stroke:#181818;stroke-width:1.0;" x1="473" x2="515" y1="315.2266" y2="315.2266"/><line style="stroke:#181818;stroke-width:1.0;" x1="515" x2="515" y1="315.2266" y2="328.2266"/><line style="stroke:#181818;stroke-width:1.0;" x1="474" x2="515" y1="328.2266" y2="328.2266"/><polygon fill="#181818" points="484,324.2266,474,328.2266,484,332.2266,480,328.2266" style="stroke:#181818;stroke-width:1.0;"/><text fill="#000000" font-family="sans-serif" font-size="13" lengthAdjust="spacing" textLength="107" x="480" y="310.1606">getPHYPayload()</text><polygon fill="#181818" points="654,353.3594,664,357.3594,654,361.3594,658,357.3594" style="stroke:#181818;stroke-width:1.0;"/><line style="stroke:#181818;stroke-width:1.0;" x1="473" x2="660" y1="357.3594" y2="357.3594"/><text fill="#000000" font-family="sans-serif" font-size="13" lengthAdjust="spacing" textLength="169" x="480" y="352.2935">Envoie paquet LoRa (UDP)</text><rect fill="#EEEEEE" height="3" style="stroke:#EEEEEE;stroke-width:1.0;" width="988" x="0" y="385.9258"/><line style="stroke:#000000;stroke-width:1.0;" x1="0" x2="988" y1="385.9258" y2="385.9258"/><line style="stroke:#000000;stroke-width:1.0;" x1="0" x2="988" y1="388.9258" y2="388.9258"/><rect fill="#EEEEEE" height="23.1328" style="stroke:#000000;stroke-width:2.0;" width="292" x="348" y="375.3594"/><text fill="#000000" font-family="sans-serif" font-size="13" font-weight="bold" lengthAdjust="spacing" textLength="273" x="354" y="391.4263">R&#233;ception et Traitement du Paquet</text><polygon fill="#181818" points="825,425.625,835,429.625,825,433.625,829,429.625" style="stroke:#181818;stroke-width:1.0;"/><line style="stroke:#181818;stroke-width:1.0;" x1="666" x2="831" y1="429.625" y2="429.625"/><text fill="#000000" font-family="sans-serif" font-size="13" lengthAdjust="spacing" textLength="77" x="673" y="424.5591">Paquet re&#231;u</text><line style="stroke:#181818;stroke-width:1.0;" x1="837" x2="879" y1="458.7578" y2="458.7578"/><line style="stroke:#181818;stroke-width:1.0;" x1="879" x2="879" y1="458.7578" y2="471.7578"/><line style="stroke:#181818;stroke-width:1.0;" x1="838" x2="879" y1="471.7578" y2="471.7578"/><polygon fill="#181818" points="848,467.7578,838,471.7578,848,475.7578,844,471.7578" style="stroke:#181818;stroke-width:1.0;"/><text fill="#000000" font-family="sans-serif" font-size="13" lengthAdjust="spacing" textLength="115" x="844" y="453.6919">fromWire(paquet)</text><line style="stroke:#181818;stroke-width:1.0;" x1="837" x2="879" y1="500.8906" y2="500.8906"/><line style="stroke:#181818;stroke-width:1.0;" x1="879" x2="879" y1="500.8906" y2="513.8906"/><line style="stroke:#181818;stroke-width:1.0;" x1="838" x2="879" y1="513.8906" y2="513.8906"/><polygon fill="#181818" points="848,509.8906,838,513.8906,848,517.8906,844,513.8906" style="stroke:#181818;stroke-width:1.0;"/><text fill="#000000" font-family="sans-serif" font-size="13" lengthAdjust="spacing" textLength="67" x="844" y="495.8247">V&#233;rifie MIC</text><path d="M609,528.8906 L675,528.8906 L675,536.0234 L665,546.0234 L609,546.0234 L609,528.8906 " fill="#EEEEEE" style="stroke:#000000;stroke-width:1.5;"/><rect fill="none" height="132.3359" style="stroke:#000000;stroke-width:1.5;" width="369" x="609" y="528.8906"/><text fill="#000000" font-family="sans-serif" font-size="13" font-weight="bold" lengthAdjust="spacing" textLength="21" x="624" y="541.9575">alt</text><text fill="#000000" font-family="sans-serif" font-size="11" font-weight="bold" lengthAdjust="spacing" textLength="77" x="690" y="541.1011">[MIC valide]</text><line style="stroke:#181818;stroke-width:1.0;" x1="837" x2="879" y1="567.1563" y2="567.1563"/><line style="stroke:#181818;stroke-width:1.0;" x1="879" x2="879" y1="567.1563" y2="580.1563"/><line style="stroke:#181818;stroke-width:1.0;" x1="838" x2="879" y1="580.1563" y2="580.1563"/><polygon fill="#181818" points="848,576.1563,838,580.1563,848,584.1563,844,580.1563" style="stroke:#181818;stroke-width:1.0;"/><text fill="#000000" font-family="sans-serif" font-size="13" lengthAdjust="spacing" textLength="122" x="844" y="562.0903">D&#233;chiffre message</text><polygon fill="#181818" points="677,605.2891,667,609.2891,677,613.2891,673,609.2891" style="stroke:#181818;stroke-width:1.0;"/><line style="stroke:#181818;stroke-width:1.0;" x1="671" x2="836" y1="609.2891" y2="609.2891"/><text fill="#000000" font-family="sans-serif" font-size="13" lengthAdjust="spacing" textLength="147" x="683" y="604.2231">Log message d&#233;chiffr&#233;</text><line style="stroke:#000000;stroke-width:1.0;stroke-dasharray:2.0,2.0;" x1="609" x2="978" y1="618.2891" y2="618.2891"/><text fill="#000000" font-family="sans-serif" font-size="11" font-weight="bold" lengthAdjust="spacing" textLength="89" x="614" y="628.4995">[MIC invalide]</text><polygon fill="#181818" points="677,649.2266,667,653.2266,677,657.2266,673,653.2266" style="stroke:#181818;stroke-width:1.0;"/><line style="stroke:#181818;stroke-width:1.0;" x1="671" x2="836" y1="653.2266" y2="653.2266"/><text fill="#000000" font-family="sans-serif" font-size="13" lengthAdjust="spacing" textLength="92" x="683" y="648.1606">Log erreur MIC</text><!--SRC=[VP9DQiD038NtSmgHLRB81Gpk9Ycqa498cvOkHIod0dl6rOm3FL7nENonZZsPsFchD-PPdvwUX77dZC3MSS4M7TMYAXJ7EwvGEvWi2YR_tX1c1MkQ0DgJk4ckp0PxAkYL4JpdjilriTPZNWPrJRsI74WY5TGv5RuDCuFkPweqXKVjf6rel1sagOhvOVumBYMmf19rHb3XJs4mK-E-kOTZOn89iCYMHuOU6lPEO7qqwi8iZBPEwfrZeu6S3tSm35djeU_QQnziQEsZnSiaiPUT7zp3tSRg15pGUtBhfy_ZxEdiYWjNIa826bl2r9TdVTnDs-oeYc7V1DbHsNcS9JwvTTR3zPE82BM_jHeAbrWkflnWeMa8CVi7VMyRuTpdVNbUA2nSzuO35foH0l_SxrpwLRuupuMW96jnVwjXT9ULsKSGijZRDeeAsqy7rdVdNjYGIFVpT959Pty0]--></g></svg>