<?xml version="1.0" encoding="us-ascii" standalone="no"?><svg xmlns="http://www.w3.org/2000/svg" xmlns:xlink="http://www.w3.org/1999/xlink" contentStyleType="text/css" height="549px" preserveAspectRatio="none" style="width:1380px;height:549px;background:#FFFFFF;" version="1.1" viewBox="0 0 1380 549" width="1380px" zoomAndPan="magnify"><defs/><g><rect fill="none" height="410.8594" style="stroke:#000000;stroke-width:1.5;" width="1364.5" x="10" y="69.5938"/><rect fill="none" height="176.7969" style="stroke:#000000;stroke-width:1.5;" width="792.5" x="572" y="296.6563"/><line style="stroke:#181818;stroke-width:0.5;stroke-dasharray:5.0,5.0;" x1="85" x2="85" y1="52.5938" y2="497.4531"/><line style="stroke:#181818;stroke-width:0.5;stroke-dasharray:5.0,5.0;" x1="269" x2="269" y1="52.5938" y2="497.4531"/><line style="stroke:#181818;stroke-width:0.5;stroke-dasharray:5.0,5.0;" x1="476" x2="476" y1="52.5938" y2="497.4531"/><line style="stroke:#181818;stroke-width:0.5;stroke-dasharray:5.0,5.0;" x1="659" x2="659" y1="52.5938" y2="497.4531"/><line style="stroke:#181818;stroke-width:0.5;stroke-dasharray:5.0,5.0;" x1="882.5" x2="882.5" y1="52.5938" y2="497.4531"/><line style="stroke:#181818;stroke-width:0.5;stroke-dasharray:5.0,5.0;" x1="1186" x2="1186" y1="52.5938" y2="497.4531"/><rect fill="#E2E2F0" height="30.2969" rx="2.5" ry="2.5" style="stroke:#181818;stroke-width:0.5;" width="131" x="20" y="21.2969"/><text fill="#000000" font-family="sans-serif" font-size="14" lengthAdjust="spacing" textLength="117" x="27" y="41.292">Device LoRaWAN</text><rect fill="#E2E2F0" height="30.2969" rx="2.5" ry="2.5" style="stroke:#181818;stroke-width:0.5;" width="131" x="20" y="496.4531"/><text fill="#000000" font-family="sans-serif" font-size="14" lengthAdjust="spacing" textLength="117" x="27" y="516.4482">Device LoRaWAN</text><rect fill="#E2E2F0" height="30.2969" rx="2.5" ry="2.5" style="stroke:#181818;stroke-width:0.5;" width="155" x="192" y="21.2969"/><text fill="#000000" font-family="sans-serif" font-size="14" lengthAdjust="spacing" textLength="141" x="199" y="41.292">Passerelle LoRaWAN</text><rect fill="#E2E2F0" height="30.2969" rx="2.5" ry="2.5" style="stroke:#181818;stroke-width:0.5;" width="155" x="192" y="496.4531"/><text fill="#000000" font-family="sans-serif" font-size="14" lengthAdjust="spacing" textLength="141" x="199" y="516.4482">Passerelle LoRaWAN</text><rect fill="#E2E2F0" height="30.2969" rx="2.5" ry="2.5" style="stroke:#181818;stroke-width:0.5;" width="137" x="408" y="21.2969"/><text fill="#000000" font-family="sans-serif" font-size="14" lengthAdjust="spacing" textLength="123" x="415" y="41.292">Serveur LoRaWAN</text><rect fill="#E2E2F0" height="30.2969" rx="2.5" ry="2.5" style="stroke:#181818;stroke-width:0.5;" width="137" x="408" y="496.4531"/><text fill="#000000" font-family="sans-serif" font-size="14" lengthAdjust="spacing" textLength="123" x="415" y="516.4482">Serveur LoRaWAN</text><rect fill="#ADD8E6" height="46.5938" rx="2.5" ry="2.5" style="stroke:#181818;stroke-width:0.5;" width="155" x="582" y="5"/><text fill="#000000" font-family="sans-serif" font-size="14" lengthAdjust="spacing" textLength="141" x="589" y="24.9951">Machine d'Attaquant</text><text fill="#000000" font-family="sans-serif" font-size="14" lengthAdjust="spacing" textLength="68" x="625.5" y="41.292">(Ettercap)</text><rect fill="#ADD8E6" height="46.5938" rx="2.5" ry="2.5" style="stroke:#181818;stroke-width:0.5;" width="155" x="582" y="496.4531"/><text fill="#000000" font-family="sans-serif" font-size="14" lengthAdjust="spacing" textLength="141" x="589" y="516.4482">Machine d'Attaquant</text><text fill="#000000" font-family="sans-serif" font-size="14" lengthAdjust="spacing" textLength="68" x="625.5" y="532.7451">(Ettercap)</text><rect fill="#ADD8E6" height="30.2969" rx="2.5" ry="2.5" style="stroke:#181818;stroke-width:0.5;" width="160" x="802.5" y="21.2969"/><text fill="#000000" font-family="sans-serif" font-size="14" lengthAdjust="spacing" textLength="146" x="809.5" y="41.292">Script Python (Scapy)</text><rect fill="#ADD8E6" height="30.2969" rx="2.5" ry="2.5" style="stroke:#181818;stroke-width:0.5;" width="160" x="802.5" y="496.4531"/><text fill="#000000" font-family="sans-serif" font-size="14" lengthAdjust="spacing" textLength="146" x="809.5" y="516.4482">Script Python (Scapy)</text><rect fill="#ADD8E6" height="30.2969" rx="2.5" ry="2.5" style="stroke:#181818;stroke-width:0.5;" width="123" x="1125" y="21.2969"/><text fill="#000000" font-family="sans-serif" font-size="14" lengthAdjust="spacing" textLength="109" x="1132" y="41.292">Serveur Node.js</text><rect fill="#ADD8E6" height="30.2969" rx="2.5" ry="2.5" style="stroke:#181818;stroke-width:0.5;" width="123" x="1125" y="496.4531"/><text fill="#000000" font-family="sans-serif" font-size="14" lengthAdjust="spacing" textLength="109" x="1132" y="516.4482">Serveur Node.js</text><path d="M10,69.5938 L87,69.5938 L87,76.7266 L77,86.7266 L10,86.7266 L10,69.5938 " fill="#EEEEEE" style="stroke:#000000;stroke-width:1.5;"/><rect fill="none" height="410.8594" style="stroke:#000000;stroke-width:1.5;" width="1364.5" x="10" y="69.5938"/><text fill="#000000" font-family="sans-serif" font-size="13" font-weight="bold" lengthAdjust="spacing" textLength="32" x="25" y="82.6606">loop</text><text fill="#000000" font-family="sans-serif" font-size="11" font-weight="bold" lengthAdjust="spacing" textLength="126" x="102" y="81.8042">[&#201;coute en continu]</text><polygon fill="#181818" points="257.5,103.8594,267.5,107.8594,257.5,111.8594,261.5,107.8594" style="stroke:#181818;stroke-width:1.0;"/><line style="stroke:#181818;stroke-width:1.0;" x1="85.5" x2="263.5" y1="107.8594" y2="107.8594"/><text fill="#000000" font-family="sans-serif" font-size="13" lengthAdjust="spacing" textLength="160" x="92.5" y="102.7935">Envoi de message chiffr&#233;</text><polygon fill="#181818" points="464.5,132.9922,474.5,136.9922,464.5,140.9922,468.5,136.9922" style="stroke:#181818;stroke-width:1.0;"/><line style="stroke:#181818;stroke-width:1.0;" x1="269.5" x2="470.5" y1="136.9922" y2="136.9922"/><text fill="#000000" font-family="sans-serif" font-size="13" lengthAdjust="spacing" textLength="183" x="276.5" y="131.9263">Transfert de message chiffr&#233;</text><polygon fill="#181818" points="487.5,177.2578,477.5,181.2578,487.5,185.2578,483.5,181.2578" style="stroke:#181818;stroke-width:1.0;"/><line style="stroke:#181818;stroke-width:1.0;" x1="481.5" x2="658.5" y1="181.2578" y2="181.2578"/><text fill="#000000" font-family="sans-serif" font-size="13" lengthAdjust="spacing" textLength="85" x="493.5" y="161.0591">ARP Spoofing</text><text fill="#000000" font-family="sans-serif" font-size="13" lengthAdjust="spacing" textLength="159" x="493.5" y="176.1919">Interception du message</text><polygon fill="#181818" points="647.5,206.3906,657.5,210.3906,647.5,214.3906,651.5,210.3906" style="stroke:#181818;stroke-width:1.0;"/><line style="stroke:#181818;stroke-width:1.0;stroke-dasharray:2.0,2.0;" x1="476.5" x2="653.5" y1="210.3906" y2="210.3906"/><text fill="#000000" font-family="sans-serif" font-size="13" lengthAdjust="spacing" textLength="152" x="483.5" y="205.3247">Message chiffr&#233; redirig&#233;</text><polygon fill="#181818" points="870.5,235.5234,880.5,239.5234,870.5,243.5234,874.5,239.5234" style="stroke:#181818;stroke-width:1.0;"/><line style="stroke:#181818;stroke-width:1.0;" x1="659.5" x2="876.5" y1="239.5234" y2="239.5234"/><text fill="#000000" font-family="sans-serif" font-size="13" lengthAdjust="spacing" textLength="199" x="666.5" y="234.4575">Capture du message via Scapy</text><line style="stroke:#181818;stroke-width:1.0;" x1="882.5" x2="924.5" y1="268.6563" y2="268.6563"/><line style="stroke:#181818;stroke-width:1.0;" x1="924.5" x2="924.5" y1="268.6563" y2="281.6563"/><line style="stroke:#181818;stroke-width:1.0;" x1="883.5" x2="924.5" y1="281.6563" y2="281.6563"/><polygon fill="#181818" points="893.5,277.6563,883.5,281.6563,893.5,285.6563,889.5,281.6563" style="stroke:#181818;stroke-width:1.0;"/><text fill="#000000" font-family="sans-serif" font-size="13" lengthAdjust="spacing" textLength="133" x="889.5" y="263.5903">Analyse du 'devAddr'</text><path d="M572,296.6563 L636,296.6563 L636,303.7891 L626,313.7891 L572,313.7891 L572,296.6563 " fill="#EEEEEE" style="stroke:#000000;stroke-width:1.5;"/><rect fill="none" height="176.7969" style="stroke:#000000;stroke-width:1.5;" width="792.5" x="572" y="296.6563"/><text fill="#000000" font-family="sans-serif" font-size="13" font-weight="bold" lengthAdjust="spacing" textLength="19" x="587" y="309.7231">alt</text><text fill="#000000" font-family="sans-serif" font-size="11" font-weight="bold" lengthAdjust="spacing" textLength="160" x="651" y="308.8667">[Si 'devAddr' correspond]</text><polygon fill="#181818" points="1174.5,330.9219,1184.5,334.9219,1174.5,338.9219,1178.5,334.9219" style="stroke:#181818;stroke-width:1.0;"/><line style="stroke:#181818;stroke-width:1.0;" x1="882.5" x2="1180.5" y1="334.9219" y2="334.9219"/><text fill="#000000" font-family="sans-serif" font-size="13" lengthAdjust="spacing" textLength="280" x="889.5" y="329.856">Envoie du message captur&#233; via Socket UDP</text><line style="stroke:#181818;stroke-width:1.0;" x1="1186.5" x2="1228.5" y1="379.1875" y2="379.1875"/><line style="stroke:#181818;stroke-width:1.0;" x1="1228.5" x2="1228.5" y1="379.1875" y2="392.1875"/><line style="stroke:#181818;stroke-width:1.0;" x1="1187.5" x2="1228.5" y1="392.1875" y2="392.1875"/><polygon fill="#181818" points="1197.5,388.1875,1187.5,392.1875,1197.5,396.1875,1193.5,392.1875" style="stroke:#181818;stroke-width:1.0;"/><text fill="#000000" font-family="sans-serif" font-size="13" lengthAdjust="spacing" textLength="157" x="1193.5" y="358.9888">D&#233;cryptage du message</text><text fill="#000000" font-family="sans-serif" font-size="13" lengthAdjust="spacing" textLength="159" x="1193.5" y="374.1216">Utilisation de lora-packet</text><polygon fill="#181818" points="670.5,417.3203,660.5,421.3203,670.5,425.3203,666.5,421.3203" style="stroke:#181818;stroke-width:1.0;"/><line style="stroke:#181818;stroke-width:1.0;" x1="664.5" x2="1185.5" y1="421.3203" y2="421.3203"/><text fill="#000000" font-family="sans-serif" font-size="13" lengthAdjust="spacing" textLength="202" x="676.5" y="416.2544">Affichage du message d&#233;crypt&#233;</text><line style="stroke:#000000;stroke-width:1.0;stroke-dasharray:2.0,2.0;" x1="572" x2="1364.5" y1="430.3203" y2="430.3203"/><line style="stroke:#181818;stroke-width:1.0;" x1="882.5" x2="924.5" y1="452.4531" y2="452.4531"/><line style="stroke:#181818;stroke-width:1.0;" x1="924.5" x2="924.5" y1="452.4531" y2="465.4531"/><line style="stroke:#181818;stroke-width:1.0;" x1="883.5" x2="924.5" y1="465.4531" y2="465.4531"/><polygon fill="#181818" points="893.5,461.4531,883.5,465.4531,893.5,469.4531,889.5,465.4531" style="stroke:#181818;stroke-width:1.0;"/><text fill="#000000" font-family="sans-serif" font-size="13" lengthAdjust="spacing" textLength="118" x="889.5" y="447.3872">Ignore le message</text><!--SRC=[TP71QXin48RlVeeXFJWzkCTIV2WiTIY19fYueHTV1cdMLgjAwcXsopv27oNFuHUhLhjsLevjM32Z-VuPVGh8OfG9w0HkLjGQHV3DF-6Fwl46CC9GceLfsnfZ92PhozQlAFGNkx9tGznImqLZhd7Pzu1gRno1dbSY-AT9nQsxlHCXLXZUPwu_KR-8uHrg_Oa-darIR8B0kfEzTt2xILWtS4DfFB_CZbi-UaqVViPCzV-7JK_Cp7eVuF1F-KO8o87oJenhPf1-exp5vwC8MCATQxq1JV2ROiGTGRfaNVFX9HF7leICWvRmdT75cbYkKYSBKwnwMiCcU5yRjzkwUzTheo0ccT3DCIVZ8x98z2bf2Gzdau196pQx2pCBcqluWa4QfiaOQ0r2rf_PelyjNpcqNSpyN5DRQStppA4Ls9ZNOfBDJ35uf_FvfUp9cutoYyLKtZNTBc_equq4dbVhKzm4FmzR7LuKTq7wcDV4hNiMOqt4mJI1zOoBqBkIAwaJwLLT6xKl4q6FWqRpP2DTlUwPolkTy-abB1KFJibN-lu3]--></g></svg>